<?xml version="1.0" encoding="UTF-8" standalone="no" ?>

<svg xmlns:dc="http://purl.org/dc/elements/1.1/" xmlns:cc="http://creativecommons.org/ns#" xmlns:rdf="http://www.w3.org/1999/02/22-rdf-syntax-ns#" xmlns:svg="http://www.w3.org/2000/svg" xmlns="http://www.w3.org/2000/svg" xmlns:sodipodi="http://sodipodi.sourceforge.net/DTD/sodipodi-0.dtd" xmlns:inkscape="http://www.inkscape.org/namespaces/inkscape" width="210mm" height="297mm" viewBox="0 0 210 297" version="1.1" id="svg8" inkscape:version="0.92.4 5da689c313, 2019-01-14" sodipodi:docname="logo-source.svg">
   <defs id="defs2" />
   <sodipodi:namedview id="base" pagecolor="#ffffff" bordercolor="#666666" borderopacity="1.0" inkscape:pageopacity="0.0" inkscape:pageshadow="2" inkscape:zoom="0.35355339" inkscape:cx="54.142782" inkscape:cy="676.9571" inkscape:document-units="mm" inkscape:current-layer="layer1" showgrid="false" inkscape:window-width="1920" inkscape:window-height="979" inkscape:window-x="0" inkscape:window-y="36" inkscape:window-maximized="1" />
   <metadata id="metadata5">
      <rdf:RDF>
         <cc:Work rdf:about="">
            <dc:format>image/svg+xml</dc:format>
            <dc:type rdf:resource="http://purl.org/dc/dcmitype/StillImage" />
            <dc:title></dc:title>
         </cc:Work>
      </rdf:RDF>
   </metadata>
   <g inkscape:label="Ebene 1" inkscape:groupmode="layer" id="layer1">
      <g id="g839" transform="matrix(1,0,0,0.9859111,-8.3423521,-188.21204)" inkscape:export-xdpi="157.12048" inkscape:export-ydpi="157.12048">
         <path inkscape:connector-curvature="0" id="path826" d="M 54.652994,356.43617 74.821271,192.3945 H 9.653157 v 164.0427 z" style="fill:#7137c8;stroke:none;stroke-width:0.26458332px;stroke-linecap:butt;stroke-linejoin:miter;stroke-opacity:1" />
         <path sodipodi:nodetypes="ccccc" inkscape:connector-curvature="0" id="path828" d="M 74.821271,192.3945 H 130.82819 L 107.41773,356.43927 H 54.651306 Z" style="fill:#38c9ac;fill-opacity:1;stroke:none;stroke-width:0.26458332px;stroke-linecap:butt;stroke-linejoin:miter;stroke-opacity:1" />
         <path inkscape:connector-curvature="0" id="path830" d="m 130.29902,192.3945 41.01352,0.003 v 164.04167 l -64.42398,1e-4 z" style="fill:#37c837;stroke:none;stroke-width:0.26458332px;stroke-linecap:butt;stroke-linejoin:miter;stroke-opacity:1" sodipodi:nodetypes="ccccc" />
      </g>
      <text xml:space="preserve" style="font-style:normal;font-variant:normal;font-weight:normal;font-stretch:normal;font-size:70.71381378px;line-height:1.25;font-family:'Benton Sans';-inkscape-font-specification:'Benton Sans';letter-spacing:0px;word-spacing:0px;stroke-width:1.76784515" x="9.4672003" y="104.63399" id="text834" inkscape:export-xdpi="157.12048" inkscape:export-ydpi="157.12048" transform="scale(1.0071198,0.99293055)">
         <tspan sodipodi:role="line" id="tspan832" x="9.4672003" y="104.63399" style="font-style:normal;font-variant:normal;font-weight:bold;font-stretch:normal;font-size:70.71381378px;font-family:Calibre;-inkscape-font-specification:'Calibre, Bold';font-variant-ligatures:normal;font-variant-caps:normal;font-variant-numeric:normal;font-feature-settings:normal;text-align:start;writing-mode:lr-tb;text-anchor:start;fill:#ffffff;stroke-width:1.76784515">T P F</tspan>
      </text>
      <g id="g991" transform="translate(-14.048166,-30.273943)">
         <path inkscape:export-ydpi="424.7005" inkscape:export-xdpi="424.7005" sodipodi:nodetypes="ccccccccccccccccccccccccccccccccccccccccccccccccc" inkscape:connector-curvature="0" id="rect841" d="m 15.742708,199.10412 v 23.68021 h 78.316666 v -23.68021 z m 3.783748,2.23294 h 16.324069 v 4.17184 h -5.743836 v 14.38982 H 25.239802 V 205.5089 h -5.713346 z m 18.319295,0 h 4.866886 v 7.04401 h 7.164421 v -7.04401 h 4.867402 v 18.56166 h -4.867402 v -7.34632 h -7.164421 v 7.34632 h -4.866886 z m 25.544176,0 h 4.957839 l 7.073985,18.56166 H 70.493886 L 69.164252,216.301 h -6.741708 l -1.299662,3.59772 h -4.806424 z m 10.852568,0 H 90.56708 v 4.17184 h -5.743834 v 14.38982 H 79.955841 V 205.5089 h -5.713346 z m -8.43411,5.74384 -1.904277,5.22965 h 3.809071 z" style="fill:#7137c8;fill-opacity:1;stroke:none;stroke-width:0.13370526;stroke-miterlimit:4;stroke-dasharray:none" />
         <path inkscape:export-ydpi="424.7005" inkscape:export-xdpi="424.7005" id="rect902" transform="scale(0.26458333)" d="m 59.5,859.01953 v 89.5 h 434 v -89.5 z m 387.05273,8.54102 c 17.99883,0 28.3643,10.36591 30.98438,24.60547 h -18.68164 c -1.93659,-5.35408 -5.69555,-8.54493 -12.30274,-8.54493 -10.13858,0 -15.94921,8.43127 -15.94921,20.05079 0,11.96124 6.15111,20.04882 16.17578,20.04882 6.94892,0 11.50612,-3.4174 13.21484,-8.77148 H 449.17188 V 901.2793 h 28.93554 v 6.94922 c 0,19.3658 -12.75972,31.55468 -31.32812,31.55468 -20.27717,0 -34.62891,-14.80894 -34.62891,-36.11132 0,-21.30244 14.35301,-36.11133 34.40234,-36.11133 z m -372.962886,1.13867 h 30.644536 c 15.15086,0 25.40234,8.54378 25.40234,24.15039 0,15.49266 -10.25148,24.03516 -25.40234,24.03516 H 91.703125 v 21.75976 H 73.589844 Z m 63.908206,0 h 50.00781 v 15.7207 h -32.00977 v 10.93555 h 29.27735 v 15.37891 h -29.27735 v 12.07421 h 32.00977 v 15.83594 h -50.00781 z m 59.12109,0 h 50.00977 v 15.7207 h -32.00977 v 10.93555 h 29.27539 v 15.37891 h -29.27539 v 12.07421 h 32.00977 v 15.83594 h -50.00977 z m 59.12305,0 h 18.34179 v 54.10937 h 31.32618 v 15.83594 h -49.66797 z m 58.09765,0 h 18.33985 v 69.94531 h -18.33985 z m 28.82032,0 h 17.08789 l 26.99804,38.5039 v -38.5039 h 17.65821 v 69.94531 h -14.81055 l -29.27539,-40.89648 v 40.89648 h -17.6582 z m -250.957035,15.3789 v 17.54297 h 10.593755 c 6.6071,0 9.56835,-3.53132 9.56835,-8.77148 0,-5.35412 -2.96125,-8.77149 -9.56835,-8.77149 z" style="fill:#38c9ac;fill-opacity:1;stroke:none;stroke-width:0.45765322;stroke-miterlimit:4;stroke-dasharray:none" inkscape:connector-curvature="0" />
         <path inkscape:export-ydpi="424.7005" inkscape:export-xdpi="424.7005" sodipodi:nodetypes="cccccsccsssccccsssscccccccccccccccccccccccccccccccccccccccccccccccccccccccccccc" inkscape:connector-curvature="0" id="rect902-5" d="m 15.790251,255.98954 v 23.6802 H 129.03192 v -23.6802 z m 100.820199,2.25981 c 4.76219,0 7.50472,2.74265 8.19795,6.5102 h -4.94285 c -0.51239,-1.4166 -1.50695,-2.26084 -3.2551,-2.26084 -2.6825,0 -4.2199,2.23077 -4.2199,5.30511 0,3.16473 1.62749,5.30457 4.27985,5.30457 1.83857,0 3.04433,-0.90418 3.49642,-2.32079 h -2.86339 v -3.61683 h 7.65587 v 1.83865 c 0,5.12386 -3.37601,8.34884 -8.2889,8.34884 -5.365,0 -9.16223,-3.91821 -9.16223,-9.55444 0,-5.63628 3.79756,-9.55447 9.10228,-9.55447 z m -81.770718,0.30128 h 13.231236 v 4.15943 h -8.469252 v 2.89337 h 7.746296 v 4.069 h -7.746296 v 3.19464 h 8.469252 v 4.18991 H 34.839732 Z m 15.642458,0 h 13.231749 v 4.15943 H 55.24469 v 2.89337 h 7.74578 v 4.069 h -7.74578 v 3.19464 h 8.469249 v 4.18991 H 50.48219 Z m 15.642973,0 h 4.852932 v 14.31644 h 8.288383 v 4.18991 H 66.125163 Z m 15.37167,0 h 4.852419 v 18.50635 h -4.852419 z m 7.625374,0 h 4.52117 l 7.143233,10.18748 v -10.18748 h 4.67207 v 18.50635 h -3.91863 l -7.745775,-10.82053 v 10.82053 h -4.672068 z m -69.627273,5.3e-4 h 13.012642 v 4.18682 h -8.223271 v 3.67522 h 7.560781 v 4.09639 h -7.560781 v 6.53656 h -4.789371 z" style="fill:#37c837;fill-opacity:1;stroke:none;stroke-width:0.12108742;stroke-miterlimit:4;stroke-dasharray:none" />
      </g>
      <g id="g986" transform="matrix(1.4701538,0,0,1.4701538,-175.36121,-35.961604)">
         <path inkscape:export-ydpi="101.89941" inkscape:export-xdpi="101.89941" sodipodi:nodetypes="cccccccccccccc" inkscape:connector-curvature="0" id="rect841-5" d="m 121.49465,198.65378 v 23.68021 h 24.14322 v -23.68021 z m 3.78375,2.23294 h 16.32406 v 4.17184 h -5.74383 v 14.38982 h -4.86689 v -14.38982 h -5.71334 z" style="fill:#7137c8;fill-opacity:1;stroke:none;stroke-width:0.13370526;stroke-miterlimit:4;stroke-dasharray:none" />
         <path sodipodi:nodetypes="ccccccsssccccccsssc" inkscape:export-ydpi="101.89941" inkscape:export-xdpi="101.89941" id="rect902-0" d="m 149.87123,198.65378 v 23.68021 h 21.69584 v -23.68021 z m 3.72794,2.56108 h 8.10803 c 4.00866,0 6.72103,2.26054 6.72103,6.38979 0,4.0991 -2.71237,6.35931 -6.72103,6.35931 h -3.31556 v 5.75727 h -4.79247 z m 4.79247,4.069 v 4.64158 h 2.80293 c 1.74813,0 2.53162,-0.93433 2.53162,-2.32079 0,-1.41661 -0.78349,-2.32079 -2.53162,-2.32079 z" style="fill:#38c9ac;fill-opacity:1;stroke:none;stroke-width:0.12108742;stroke-miterlimit:4;stroke-dasharray:none" inkscape:connector-curvature="0" />
         <path inkscape:export-ydpi="101.89941" inkscape:export-xdpi="101.89941" sodipodi:nodetypes="cccccccccccccccc" inkscape:connector-curvature="0" id="rect902-5-6" d="m 175.80043,198.65378 v 23.6802 h 20.50521 v -23.6802 z m 3.70468,2.56162 h 13.01265 v 4.18682 h -8.22328 v 3.67522 h 7.56079 v 4.09639 h -7.56079 v 6.53656 h -4.78937 z" style="fill:#37c837;fill-opacity:1;stroke:none;stroke-width:0.12108742;stroke-miterlimit:4;stroke-dasharray:none" />
      </g>
   </g>
</svg>